<svg xmlns="http://www.w3.org/2000/svg" xmlns:xlink="http://www.w3.org/1999/xlink" preserveAspectRatio="xMidYMid" width="29.219" height="19.438" viewBox="0 0 29.219 19.438">
  <defs>
    <style>
      .cls-1 {
        fill: #262626;
        fill-rule: evenodd;
      }
    </style>
  </defs>
  <path d="M28.116,10.854 L1.104,10.854 C0.495,10.854 0.002,10.342 0.002,9.710 C0.002,9.079 0.495,8.567 1.104,8.567 L28.116,8.567 C28.725,8.567 29.219,9.079 29.219,9.710 C29.219,10.342 28.725,10.854 28.116,10.854 ZM28.116,2.276 L1.104,2.276 C0.495,2.276 0.002,1.763 0.002,1.132 C0.002,0.500 0.495,-0.012 1.104,-0.012 L28.116,-0.012 C28.725,-0.012 29.219,0.500 29.219,1.132 C29.219,1.763 28.725,2.276 28.116,2.276 ZM1.104,17.145 L28.116,17.145 C28.725,17.145 29.219,17.657 29.219,18.289 C29.219,18.920 28.725,19.433 28.116,19.433 L1.104,19.433 C0.495,19.433 0.002,18.920 0.002,18.289 C0.002,17.657 0.495,17.145 1.104,17.145 Z" class="cls-1"/>
</svg>
